<svg width="332" height="40" viewBox="0 0 332 40" fill="none" xmlns="http://www.w3.org/2000/svg">
<path d="M14.5706 11.1911C17.3777 11.1911 19.7045 11.5974 21.5512 12.41C23.4349 13.1856 24.8938 14.2382 25.928 15.5679C26.9991 16.8606 27.6639 18.2641 27.9224 19.7784L19.2244 22.6593C18.9658 21.0711 18.4857 19.8892 17.7839 19.1136C17.1191 18.301 16.1404 17.8947 14.8476 17.8947C13.6657 17.8947 12.6685 18.1717 11.856 18.7258C11.0803 19.2428 10.4894 20.0923 10.0831 21.2742C9.67682 22.4192 9.47368 23.8966 9.47368 25.7064C9.47368 27.5162 9.69529 28.9935 10.1385 30.1385C10.5817 31.2465 11.2096 32.0591 12.0222 32.5762C12.8347 33.0563 13.795 33.2964 14.903 33.2964C15.8264 33.2964 16.5836 33.1302 17.1745 32.7978C17.8024 32.4284 18.3195 31.9114 18.7258 31.2465C19.132 30.5817 19.3906 29.7692 19.5014 28.8089L27.9778 31.5235C27.7193 33.1487 27.0175 34.6076 25.8726 35.9003C24.7645 37.156 23.2872 38.1533 21.4404 38.892C19.5937 39.6307 17.4331 40 14.9584 40C11.9298 40 9.28901 39.446 7.03601 38.3379C4.78301 37.193 3.04709 35.5494 1.82826 33.4072C0.609419 31.2281 0 28.6242 0 25.5956C0 22.5669 0.609419 19.9815 1.82826 17.8393C3.04709 15.6602 4.74608 14.0166 6.92521 12.9086C9.14127 11.7636 11.6898 11.1911 14.5706 11.1911Z" fill="white"/>
<path d="M46.06 11.1911C48.9778 11.1911 51.5263 11.7636 53.7054 12.9086C55.9215 14.0166 57.6389 15.6602 58.8578 17.8393C60.1135 19.9815 60.7414 22.5669 60.7414 25.5956C60.7414 28.6242 60.1135 31.2281 58.8578 33.4072C57.6389 35.5494 55.9215 37.193 53.7054 38.3379C51.5263 39.446 48.9778 40 46.06 40C43.216 40 40.686 39.446 38.47 38.3379C36.2539 37.193 34.518 35.5494 33.2622 33.4072C32.0434 31.2281 31.434 28.6242 31.434 25.5956C31.434 22.5669 32.0434 19.9815 33.2622 17.8393C34.518 15.6602 36.2539 14.0166 38.47 12.9086C40.686 11.7636 43.216 11.1911 46.06 11.1911ZM46.06 17.8947C44.9889 17.8947 44.0655 18.1533 43.2899 18.6704C42.5143 19.1874 41.9233 20.0185 41.5171 21.1634C41.1108 22.3084 40.9076 23.7858 40.9076 25.5956C40.9076 27.4054 41.1108 28.8827 41.5171 30.0277C41.9233 31.1357 42.5143 31.9668 43.2899 32.5208C44.0655 33.0379 44.9889 33.2964 46.06 33.2964C47.168 33.2964 48.1099 33.0379 48.8855 32.5208C49.6611 31.9668 50.2521 31.1357 50.6583 30.0277C51.0646 28.8827 51.2677 27.4054 51.2677 25.5956C51.2677 23.7858 51.0646 22.3084 50.6583 21.1634C50.2521 20.0185 49.6611 19.1874 48.8855 18.6704C48.1099 18.1533 47.168 17.8947 46.06 17.8947Z" fill="white"/>
<path d="M66.0396 39.446V11.7452H74.4607L74.9593 21.2742L73.9067 20.2216C74.276 18.2271 74.9224 16.5651 75.8457 15.2355C76.806 13.9058 77.9879 12.9086 79.3915 12.2438C80.8319 11.542 82.4385 11.1911 84.2114 11.1911C86.132 11.1911 87.794 11.5605 89.1975 12.2992C90.638 13.0379 91.7645 14.1274 92.577 15.5679C93.3896 17.0083 93.7959 18.8181 93.7959 20.9972V39.446H84.3776V23.4903C84.3776 21.5697 84.0083 20.2401 83.2696 19.5014C82.5309 18.7627 81.589 18.3934 80.4441 18.3934C79.5577 18.3934 78.7266 18.615 77.951 19.0582C77.1754 19.4644 76.566 20.1293 76.1228 21.0526C75.6795 21.976 75.4579 23.2133 75.4579 24.7645V39.446H66.0396Z" fill="white"/>
<path d="M100.395 39.446V11.7452H108.816L109.315 21.2742L108.262 20.2216C108.632 18.2271 109.278 16.5651 110.201 15.2355C111.162 13.9058 112.343 12.9086 113.747 12.2438C115.187 11.542 116.794 11.1911 118.567 11.1911C120.487 11.1911 122.15 11.5605 123.553 12.2992C124.994 13.0379 126.12 14.1274 126.933 15.5679C127.745 17.0083 128.151 18.8181 128.151 20.9972V39.446H118.733V23.4903C118.733 21.5697 118.364 20.2401 117.625 19.5014C116.886 18.7627 115.945 18.3934 114.8 18.3934C113.913 18.3934 113.082 18.615 112.307 19.0582C111.531 19.4644 110.921 20.1293 110.478 21.0526C110.035 21.976 109.813 23.2133 109.813 24.7645V39.446H100.395Z" fill="white"/>
<path d="M148.269 40C145.203 40 142.544 39.4275 140.291 38.2825C138.075 37.1376 136.357 35.494 135.138 33.3518C133.92 31.2096 133.31 28.6242 133.31 25.5956C133.31 22.5669 133.92 19.9815 135.138 17.8393C136.357 15.6971 138.056 14.0536 140.235 12.9086C142.452 11.7636 144.982 11.1911 147.825 11.1911C150.743 11.1911 153.218 11.7636 155.249 12.9086C157.318 14.0166 158.887 15.5679 159.958 17.5623C161.03 19.5199 161.565 21.7729 161.565 24.3213C161.565 24.9862 161.547 25.651 161.51 26.3158C161.473 26.9806 161.417 27.5346 161.343 27.9778H139.404V22.9363H157.188L152.701 24.6537C152.701 22.4377 152.295 20.7387 151.482 19.5568C150.706 18.3749 149.488 17.7839 147.825 17.7839C146.644 17.7839 145.628 18.0609 144.778 18.615C143.966 19.169 143.338 20.0369 142.895 21.2188C142.488 22.4007 142.285 23.9151 142.285 25.7618C142.285 27.5716 142.525 29.0489 143.006 30.1939C143.486 31.3019 144.169 32.1145 145.055 32.6316C145.942 33.1117 147.013 33.3518 148.269 33.3518C149.672 33.3518 150.78 33.0748 151.593 32.5208C152.442 31.9668 153.07 31.1911 153.476 30.1939L161.011 32.687C160.494 34.2752 159.589 35.6233 158.296 36.7313C157.041 37.8024 155.526 38.615 153.753 39.169C152.018 39.723 150.189 40 148.269 40Z" fill="white"/>
<path d="M179.964 11.1911C182.771 11.1911 185.098 11.5974 186.945 12.41C188.828 13.1856 190.287 14.2382 191.321 15.5679C192.393 16.8606 193.057 18.2641 193.316 19.7784L184.618 22.6593C184.359 21.0711 183.879 19.8892 183.177 19.1136C182.513 18.301 181.534 17.8947 180.241 17.8947C179.059 17.8947 178.062 18.1717 177.249 18.7258C176.474 19.2428 175.883 20.0923 175.477 21.2742C175.07 22.4192 174.867 23.8966 174.867 25.7064C174.867 27.5162 175.089 28.9935 175.532 30.1385C175.975 31.2465 176.603 32.0591 177.416 32.5762C178.228 33.0563 179.188 33.2964 180.296 33.2964C181.22 33.2964 181.977 33.1302 182.568 32.7978C183.196 32.4284 183.713 31.9114 184.119 31.2465C184.525 30.5817 184.784 29.7692 184.895 28.8089L193.371 31.5235C193.113 33.1487 192.411 34.6076 191.266 35.9003C190.158 37.156 188.681 38.1533 186.834 38.892C184.987 39.6307 182.826 40 180.352 40C177.323 40 174.682 39.446 172.429 38.3379C170.176 37.193 168.441 35.5494 167.222 33.4072C166.003 31.2281 165.393 28.6242 165.393 25.5956C165.393 22.5669 166.003 19.9815 167.222 17.8393C168.441 15.6602 170.14 14.0166 172.319 12.9086C174.535 11.7636 177.083 11.1911 179.964 11.1911Z" fill="white"/>
<path d="M209.847 2.93629V29.5845C209.847 30.9141 210.161 31.8744 210.789 32.4654C211.453 33.0194 212.358 33.2964 213.503 33.2964C214.39 33.2964 215.147 33.2041 215.775 33.0194C216.44 32.7978 217.031 32.4838 217.548 32.0776L218.545 37.8947C217.621 38.5596 216.458 39.0766 215.055 39.446C213.651 39.8153 212.211 40 210.733 40C208.628 40 206.8 39.7045 205.248 39.1136C203.734 38.5226 202.552 37.5808 201.703 36.2881C200.89 34.9954 200.465 33.2779 200.429 31.1357V5.54016L209.847 2.93629ZM218.102 11.7452V18.4488H195.664V11.7452H218.102Z" fill="white"/>
<path d="M227.43 29.9169C229.166 29.9169 230.514 30.3601 231.475 31.2465C232.472 32.133 232.971 33.3703 232.971 34.9584C232.971 36.5097 232.472 37.7285 231.475 38.615C230.514 39.5014 229.166 39.9446 227.43 39.9446C225.731 39.9446 224.383 39.5014 223.386 38.615C222.389 37.7285 221.89 36.5097 221.89 34.9584C221.89 33.3703 222.389 32.133 223.386 31.2465C224.383 30.3601 225.731 29.9169 227.43 29.9169Z" fill="white"/>
<path d="M248.173 40C245.884 40 243.871 39.446 242.135 38.3379C240.436 37.193 239.106 35.5494 238.146 33.4072C237.222 31.265 236.761 28.6981 236.761 25.7064C236.761 22.6039 237.241 19.9815 238.201 17.8393C239.198 15.6971 240.565 14.0536 242.301 12.9086C244.074 11.7636 246.105 11.1911 248.395 11.1911C250.907 11.1911 252.92 11.9668 254.434 13.518C255.985 15.0323 256.982 16.9714 257.426 19.3352L256.539 20.4986V0H265.957V39.446H257.536L256.927 30.0277L258.035 30.8587C257.813 32.7054 257.241 34.3121 256.318 35.6787C255.431 37.0452 254.286 38.1163 252.883 38.892C251.516 39.6307 249.946 40 248.173 40ZM251.442 33.0748C252.513 33.0748 253.418 32.7978 254.157 32.2438C254.933 31.6528 255.523 30.7849 255.93 29.6399C256.336 28.4949 256.539 27.0914 256.539 25.4294C256.539 23.8781 256.336 22.5669 255.93 21.4958C255.56 20.3878 254.988 19.5568 254.212 19.0028C253.474 18.4118 252.569 18.1163 251.498 18.1163C249.872 18.1163 248.58 18.7258 247.619 19.9446C246.696 21.1265 246.234 23.0102 246.234 25.5956C246.234 28.181 246.696 30.0831 247.619 31.3019C248.543 32.4838 249.817 33.0748 251.442 33.0748Z" fill="white"/>
<path d="M286.232 40C283.166 40 280.507 39.4275 278.254 38.2825C276.038 37.1376 274.32 35.494 273.102 33.3518C271.883 31.2096 271.273 28.6242 271.273 25.5956C271.273 22.5669 271.883 19.9815 273.102 17.8393C274.32 15.6971 276.019 14.0536 278.199 12.9086C280.415 11.7636 282.945 11.1911 285.789 11.1911C288.706 11.1911 291.181 11.7636 293.212 12.9086C295.281 14.0166 296.85 15.5679 297.922 17.5623C298.993 19.5199 299.528 21.7729 299.528 24.3213C299.528 24.9862 299.51 25.651 299.473 26.3158C299.436 26.9806 299.38 27.5346 299.307 27.9778H277.368V22.9363H295.152L290.664 24.6537C290.664 22.4377 290.258 20.7387 289.445 19.5568C288.669 18.3749 287.451 17.7839 285.789 17.7839C284.607 17.7839 283.591 18.0609 282.742 18.615C281.929 19.169 281.301 20.0369 280.858 21.2188C280.452 22.4007 280.248 23.9151 280.248 25.7618C280.248 27.5716 280.489 29.0489 280.969 30.1939C281.449 31.3019 282.132 32.1145 283.019 32.6316C283.905 33.1117 284.976 33.3518 286.232 33.3518C287.635 33.3518 288.743 33.0748 289.556 32.5208C290.405 31.9668 291.033 31.1911 291.44 30.1939L298.974 32.687C298.457 34.2752 297.552 35.6233 296.26 36.7313C295.004 37.8024 293.489 38.615 291.717 39.169C289.981 39.723 288.152 40 286.232 40Z" fill="white"/>
<path d="M321.937 11.7452H331.688L321.715 39.446H310.469L300.496 11.7452H310.413L316.12 32.8532L321.937 11.7452Z" fill="white"/>
</svg>
